# xmcd CD database file
#
# Track frame offsets:
#	150
#	11466
#	33231
#	47656
#	68492
#	80990
#	97485
#	113706
#	128328
#
# Disc length: 1931 seconds
#
# Revision: 0
# Processed by: cddbd v1.4PL0 Copyright (c) Steve Scherf et al.
# Submitted via: CDex 1.50beta10
#
DISCID=6d078909
DTITLE=Henry Mancini - Symphonic soul
DYEAR=1975
DGENRE=Jazz
TTITLE0=Symphonic soul
TTITLE1=Butterfly
TTITLE2=Satin soul
TTITLE3=Peter Gunn (new version)
TTITLE4=Slow hot wind (Lujon)
TTITLE5=Pick up the pieces
TTITLE6=Sun goddes
TTITLE7=Soul saga (song of the buffalo soldier)
TTITLE8=African symphony
EXTD=YEAR: 1975
EXTT0=
EXTT1=
EXTT2=
EXTT3=
EXTT4=
EXTT5=
EXTT6=
EXTT7=
EXTT8=
PLAYORDER=
